<svg version="1.1" id="Layer_1" xmlns="http://www.w3.org/2000/svg" xmlns:xlink="http://www.w3.org/1999/xlink" x="0px" y="0px" width="112" height="28" viewBox="0 0 1207.8 225.6" style="text-decoration: initial;" xml:space="preserve">
<style type="text/css">
                            .st0 {
                                fill: #00BFB1;
                            }
                        </style>
<path class="st0" d="M169.5,0H56.1C25.1,0,0,25.1,0,56.1v113.4c0,31,25.1,56.1,56.1,56.1h113.4c31,0,56.1-25.1,56.1-56.1V56.1
	C225.6,25.1,200.5,0,169.5,0z M156.4,154.1c-2.1,5.4-5.2,10.1-9.3,14.1c-4.1,4-9.1,7.2-15,9.4c-6,2.3-12.7,3.4-20.3,3.4
	c-4.2,0-8.4-0.4-12.7-1.3s-8.5-2.1-12.5-3.6c-4-1.6-7.8-3.4-11.4-5.6c-3.5-2.2-6.6-4.5-9.3-7.2l9.2-14.5c0.7-1.1,1.6-2,2.8-2.6
	c1.2-0.7,2.5-1,4-1c1.8,0,3.7,0.6,5.5,1.7c1.9,1.1,4,2.4,6.4,3.9c2.4,1.4,5.1,2.7,8.1,3.9c3.1,1.1,6.7,1.7,10.8,1.7
	c5.6,0,10-1.2,13.1-3.7c3.1-2.5,4.7-6.4,4.7-11.8c0-3.1-0.9-5.7-2.6-7.6c-1.7-1.9-4-3.6-6.7-4.9c-2.8-1.3-6-2.4-9.5-3.4
	c-3.5-1-7.2-2-10.9-3.2c-3.7-1.2-7.4-2.7-10.9-4.4c-3.6-1.7-6.7-4-9.5-6.9c-2.8-2.8-5-6.4-6.7-10.7c-1.7-4.2-2.6-9.5-2.6-15.7
	c0-5,1-9.9,3-14.7c2-4.8,5-9,8.9-12.7c3.9-3.7,8.7-6.7,14.4-8.9c5.7-2.3,12.2-3.4,19.5-3.4c4.1,0,8.1,0.3,12,1
	c3.9,0.6,7.6,1.6,11,2.8c3.5,1.2,6.7,2.7,9.8,4.5c3.1,1.7,5.7,3.7,8.1,5.9l-7.7,14.4c-0.9,1.5-1.9,2.6-2.9,3.3
	c-1,0.7-2.3,1.1-3.9,1.1c-1.4,0-2.9-0.5-4.5-1.3c-1.6-0.9-3.5-1.9-5.5-3c-2-1.1-4.4-2.1-7-3c-2.6-0.9-5.6-1.3-9-1.3
	c-5.8,0-10.1,1.2-12.9,3.7c-2.8,2.5-4.3,5.8-4.3,10c0,2.7,0.8,4.9,2.6,6.7c1.7,1.8,4,3.3,6.7,4.6c2.8,1.3,6,2.5,9.5,3.5
	c3.6,1.1,7.2,2.3,10.9,3.6c3.7,1.3,7.4,2.8,11,4.6c3.6,1.8,6.8,4.1,9.5,6.8c2.8,2.7,5,6.1,6.7,10c1.7,4,2.6,8.7,2.6,14.3
	C159.7,143,158.6,148.7,156.4,154.1z"></path>
<g>
<path class="st0" d="M386.7,69.1c-1,1.6-2,2.7-3.1,3.5c-1.1,0.8-2.4,1.2-4.1,1.2c-1.5,0-3.1-0.5-4.8-1.4c-1.7-0.9-3.7-2-5.8-3.2
		c-2.2-1.2-4.6-2.2-7.4-3.2c-2.8-0.9-6-1.4-9.5-1.4c-6.2,0-10.7,1.3-13.7,3.9c-3,2.6-4.5,6.2-4.5,10.6c0,2.9,0.9,5.2,2.7,7.1
		s4.2,3.5,7.1,4.9c2.9,1.4,6.3,2.6,10.1,3.7c3.8,1.1,7.7,2.4,11.6,3.8c3.9,1.4,7.8,3,11.6,4.9c3.8,1.9,7.2,4.3,10.1,7.2
		c2.9,2.9,5.3,6.5,7.1,10.6c1.8,4.2,2.7,9.2,2.7,15.1c0,6.5-1.1,12.7-3.4,18.4c-2.3,5.7-5.6,10.7-9.9,14.9c-4.3,4.2-9.6,7.6-15.9,10
		c-6.3,2.4-13.5,3.6-21.5,3.6c-4.4,0-8.9-0.5-13.5-1.4c-4.6-0.9-9-2.2-13.3-3.8c-4.3-1.7-8.3-3.6-12-5.9c-3.8-2.3-7-4.8-9.8-7.6
		l9.7-15.3c0.7-1.2,1.7-2.1,3-2.8c1.3-0.7,2.7-1.1,4.2-1.1c1.9,0,3.9,0.6,5.9,1.8c2,1.2,4.2,2.6,6.7,4.1c2.5,1.5,5.4,2.9,8.6,4.1
		c3.2,1.2,7.1,1.8,11.5,1.8c6,0,10.6-1.3,13.9-3.9c3.3-2.6,5-6.8,5-12.5c0-3.3-0.9-6-2.7-8.1c-1.8-2.1-4.2-3.8-7.1-5.1
		c-2.9-1.4-6.3-2.6-10.1-3.6c-3.8-1-7.6-2.2-11.6-3.4c-3.9-1.3-7.8-2.8-11.6-4.7c-3.8-1.8-7.1-4.3-10.1-7.3c-2.9-3-5.3-6.8-7.1-11.3
		S303,87.4,303,80.8c0-5.3,1.1-10.5,3.2-15.5c2.1-5.1,5.3-9.6,9.4-13.5c4.1-3.9,9.2-7.1,15.3-9.5c6-2.4,12.9-3.5,20.7-3.5
		c4.3,0,8.6,0.3,12.7,1c4.1,0.7,8,1.7,11.7,3c3.7,1.3,7.1,2.9,10.3,4.8c3.2,1.8,6.1,3.9,8.6,6.3L386.7,69.1z"></path>
<path class="st0" d="M525.6,40.3v26h-39.8v115.5H453V66.4h-39.8v-26H525.6z"></path>
<path class="st0" d="M607.8,155.9c4.4,0,8.3-0.7,11.8-2.2c3.5-1.5,6.4-3.5,8.8-6.3c2.4-2.7,4.2-6,5.5-10c1.3-3.9,1.9-8.4,1.9-13.4
		V40.3h32.8v83.8c0,8.7-1.4,16.6-4.2,23.9c-2.8,7.3-6.9,13.5-12.1,18.7c-5.2,5.2-11.6,9.3-19.1,12.2c-7.5,2.9-16,4.4-25.4,4.4
		c-9.5,0-17.9-1.5-25.5-4.4c-7.5-2.9-13.9-7-19.1-12.2c-5.2-5.2-9.3-11.5-12-18.7c-2.8-7.3-4.2-15.2-4.2-23.9V40.3h32.8v83.7
		c0,5,0.6,9.4,1.9,13.4c1.3,3.9,3.1,7.3,5.5,10s5.3,4.9,8.8,6.3C599.5,155.2,603.4,155.9,607.8,155.9z"></path>
<path class="st0" d="M802.5,40.3v26h-39.8v115.5h-32.8V66.4H690v-26H802.5z"></path>
<path class="st0" d="M916.9,40.3v25.3h-58.1v33h44.5v24.3h-44.5v33.7h58.1v25.3h-91.1V40.3H916.9z"></path>
<path class="st0" d="M978.1,129.5v52.4h-32.8V40.3h46c10.2,0,19,1.1,26.2,3.2c7.2,2.1,13.1,5,17.7,8.8c4.6,3.8,7.9,8.2,10,13.3
		c2.1,5.1,3.1,10.7,3.1,16.7c0,4.6-0.6,8.9-1.8,13c-1.2,4.1-3.1,7.9-5.5,11.3c-2.4,3.5-5.4,6.6-8.9,9.3c-3.5,2.7-7.6,5-12.2,6.7
		c2.2,1.1,4.3,2.5,6.2,4.1c1.9,1.6,3.6,3.6,5,5.9l30.1,49.3h-29.7c-5.5,0-9.5-2.1-11.9-6.2L996,134.6c-1-1.8-2.3-3.1-3.6-3.9
		c-1.4-0.8-3.4-1.2-5.9-1.2H978.1z M978.1,106.9h13.2c4.5,0,8.3-0.6,11.4-1.7c3.1-1.1,5.7-2.7,7.7-4.7s3.5-4.4,4.4-7
		c0.9-2.7,1.4-5.6,1.4-8.7c0-6.2-2-11.1-6.1-14.6c-4-3.5-10.3-5.2-18.8-5.2h-13.2V106.9z"></path>
<path class="st0" d="M1105.1,40.5c1,0.1,1.8,0.4,2.6,0.7s1.5,0.9,2.2,1.5c0.7,0.6,1.5,1.5,2.4,2.6l67.2,85
		c-0.3-2.7-0.5-5.4-0.6-7.9c-0.1-2.6-0.2-5-0.2-7.2V40.3h28.9v141.5h-17.1c-2.5,0-4.7-0.4-6.4-1.2c-1.7-0.8-3.4-2.2-5.1-4.3
		l-66.7-84.3c0.2,2.5,0.4,4.9,0.5,7.2c0.1,2.4,0.2,4.6,0.2,6.7v75.9h-28.9V40.3h17.3C1102.9,40.3,1104.1,40.4,1105.1,40.5z"></path>
</g>
</svg>